<svg width="348" height="135" viewBox="0 0 348 135" fill="none" xmlns="http://www.w3.org/2000/svg">
<g clip-path="url(#clip0_539_626)">
<path d="M191.94 30.9646L191.731 26.9159L188.761 30.7986L185.789 26.6421L185.637 31.4434L184.441 31.461L184.492 24.2343C184.796 24.1796 185.598 24.176 185.803 24.4516L188.872 28.5764L191.745 24.4534C191.941 24.1707 192.906 24.1018 193.146 24.3986L193.153 31.2526C193.153 31.4893 192.403 31.8196 192.269 31.6748C192.134 31.5299 191.947 31.1766 191.936 30.9629L191.94 30.9646Z" fill="white"/>
<path d="M165.261 31.3816C162.705 32.5457 163.389 28.08 160.267 29.154C159.556 30.6149 160.41 29.4172 159.74 31.5388C159.669 31.7631 158.758 31.431 158.76 31.1307L158.779 24.2308C160.57 24.2008 164.836 23.6126 165.142 26.0079C165.291 27.1703 164.785 28.0411 163.75 28.9597L165.263 31.3798L165.261 31.3816ZM163.945 26.5538C163.918 25.0169 161.475 25.296 160.014 25.2554L160.081 27.7673C161.417 27.8592 163.971 28.0129 163.945 26.5538Z" fill="white"/>
<path d="M151.937 28.2973L148.169 28.4739C147.755 28.6682 147.91 30.4259 148.461 30.4436L152.397 30.5602L152.531 31.3286C152.565 31.5211 152.096 31.6041 151.838 31.6041L146.654 31.5829L146.702 24.1973H152.363L152.381 24.9816C152.383 25.1017 151.915 25.2307 151.793 25.2324L148.197 25.2907C147.955 25.6458 147.958 26.8223 148.188 27.2127L151.341 27.2533C151.447 27.271 151.638 27.6084 151.938 28.2937L151.937 28.2973Z" fill="white"/>
<path d="M225.012 31.3745C222.74 32.3143 219.142 31.189 219.735 30.3146C219.851 30.1415 220.389 29.8624 220.614 29.979C222.192 30.8057 224.744 30.9187 225.001 29.5638C225.047 29.3218 224.529 28.7477 224.272 28.6983L221.845 28.216C220.835 28.0164 219.996 27.4299 219.922 26.5131C219.851 25.6599 220.364 24.6283 221.309 24.3244C223.515 23.6161 226.354 24.5523 225.756 25.3578C224.943 26.4548 224.322 24.4393 221.826 25.2819C221.564 25.3702 221.106 26.0026 221.183 26.2552C221.261 26.5078 221.742 26.8805 222.008 26.9406L225.295 27.6861C225.848 27.8115 226.37 28.9968 226.333 29.5373C226.291 30.1221 225.772 31.0583 225.013 31.3727L225.012 31.3745Z" fill="white"/>
<path d="M178.677 31.2915C176.392 32.5475 178.185 29.6469 174.952 29.8271C174.249 29.8659 172.947 29.8518 172.487 30.2122C172.254 30.3941 171.976 31.1113 171.801 31.3409C171.626 31.5706 170.98 31.507 170.48 31.3904L173.848 24.3845C173.988 24.0948 175.045 24.0736 175.214 24.4075L178.677 31.2897V31.2915ZM176.068 28.6948L174.538 25.8419L173.135 28.753L176.068 28.6965V28.6948Z" fill="white"/>
<path d="M208.708 29.1523C210.177 31.7667 213.262 29.9648 213.805 29.9101C214.044 29.8854 214.383 30.6485 214.164 30.8128C212.938 31.7243 210.284 32.2489 208.71 31.1272C206.61 29.6292 206.403 26.635 208.411 24.9109C209.878 23.6514 212.74 23.927 213.983 25.0028C214.162 25.1565 213.796 25.9337 213.584 25.8578L212.517 25.4797C211.436 25.0964 210.111 25.236 209.274 25.9108C208.432 26.5891 208.059 27.997 208.708 29.154V29.1523Z" fill="white"/>
<path d="M135.403 29.6734C137.077 31.431 139.161 29.9949 140.01 29.956C140.222 29.9472 140.539 30.6202 140.396 30.7633C139.693 31.4628 137.889 31.9433 136.797 31.7278C135.152 31.4028 134.022 30.4506 133.569 29.1399C133.052 27.6525 133.357 25.9461 134.699 24.9339C136.334 23.7026 138.825 23.8917 140.344 25.0929C140.249 25.3331 139.918 25.9372 139.745 25.8737L138.74 25.5062C137.567 25.077 136.18 25.183 135.349 26.0432C134.503 26.9176 134.384 28.6011 135.405 29.6734H135.403Z" fill="white"/>
<path d="M200.962 31.4134L199.707 31.5017L199.716 24.2821L200.939 24.2026L200.962 31.4134Z" fill="white"/>
<path d="M75.7502 40.0338H78.6231V80.285C79.1573 80.285 80.0029 80.1666 81.1581 79.9299L88.1723 78.4496V81.4685H75.7502V40.0338Z" fill="white"/>
<path d="M91.8483 60.7512C91.8483 57.7128 92.2357 54.8811 93.0105 52.2579C93.7853 49.6347 94.8698 47.3453 96.2637 45.3916C97.6577 43.4378 99.2905 41.9186 101.166 40.834C103.039 39.7494 105.059 39.2071 107.228 39.2071C109.397 39.2071 111.417 39.7494 113.291 40.834C115.164 41.9204 116.797 43.4378 118.193 45.3916C119.587 47.3453 120.671 49.6347 121.446 52.2579C122.221 54.8829 122.608 57.7146 122.608 60.7512C122.608 63.7877 122.221 66.6212 121.446 69.2444C120.671 71.8694 119.587 74.157 118.193 76.1108C116.799 78.0645 115.164 79.5837 113.291 80.6683C111.417 81.7529 109.397 82.2952 107.228 82.2952C105.059 82.2952 103.037 81.7529 101.166 80.6683C99.2923 79.5837 97.6595 78.0645 96.2637 76.1108C94.8698 74.157 93.7853 71.8694 93.0105 69.2444C92.2357 66.6212 91.8483 63.7895 91.8483 60.7512ZM95.059 60.7512C95.059 64.777 95.5668 68.2976 96.5804 71.3165C97.5941 74.3354 99.0163 76.6831 100.847 78.3613C102.678 80.0394 104.805 80.8767 107.228 80.8767C109.652 80.8767 111.776 80.0394 113.609 78.3613C115.44 76.6849 116.862 74.3266 117.876 71.2882C118.89 68.2499 119.397 64.7381 119.397 60.7512C119.397 56.7642 118.89 53.263 117.876 50.2441C116.862 47.2252 115.44 44.8687 113.609 43.1711C111.778 41.4753 109.652 40.6256 107.228 40.6256C104.805 40.6256 102.685 41.4647 100.869 43.1411C99.0517 44.8192 97.6294 47.1669 96.6016 50.1858C95.5738 53.2047 95.059 56.7271 95.059 60.7512Z" fill="white"/>
<path d="M126.663 81.4685L138.029 40.0338H140.649L152.015 81.4685H148.929L143.69 62.0531H134.098L129.746 81.4685H126.661H126.663ZM138.326 43.1128L134.397 60.6346H143.313L138.581 43.1128H138.328H138.326Z" fill="white"/>
<path d="M186.703 40.0338V81.4685H183.83V43.4661H183.577L173.353 70.9314H172.043L160.424 46.7217H160.172L161.1 81.4685H158.227L159.283 39.2053H160.129L173.439 66.9074H173.692L183.664 40.0338H186.707H186.703Z" fill="white"/>
<path d="M195.575 60.7512C195.575 57.7128 195.962 54.8811 196.737 52.2579C197.512 49.6347 198.597 47.3453 199.99 45.3916C201.384 43.4378 203.019 41.9186 204.892 40.834C206.766 39.7494 208.786 39.2071 210.955 39.2071C213.124 39.2071 215.144 39.7494 217.017 40.834C218.891 41.9204 220.524 43.4378 221.919 45.3916C223.313 47.3453 224.398 49.6347 225.173 52.2579C225.947 54.8829 226.335 57.7146 226.335 60.7512C226.335 63.7877 225.947 66.6212 225.173 69.2444C224.398 71.8694 223.313 74.157 221.919 76.1108C220.525 78.0645 218.891 79.5837 217.017 80.6683C215.144 81.7529 213.124 82.2952 210.955 82.2952C208.786 82.2952 206.764 81.7529 204.892 80.6683C203.019 79.5837 201.386 78.0645 199.99 76.1108C198.597 74.157 197.512 71.8694 196.737 69.2444C195.962 66.6212 195.575 63.7895 195.575 60.7512ZM198.788 60.7512C198.788 64.777 199.295 68.2976 200.309 71.3165C201.323 74.3354 202.745 76.6831 204.576 78.3613C206.407 80.0394 208.533 80.8767 210.957 80.8767C213.38 80.8767 215.505 80.0394 217.338 78.3613C219.168 76.6849 220.591 74.3266 221.604 71.2882C222.618 68.2499 223.126 64.7381 223.126 60.7512C223.126 56.7642 222.618 53.263 221.604 50.2441C220.591 47.2252 219.168 44.8687 217.338 43.1711C215.507 41.4753 213.38 40.6256 210.957 40.6256C208.533 40.6256 206.414 41.4647 204.597 43.1411C202.78 44.8192 201.358 47.1669 200.33 50.1858C199.302 53.2047 198.788 56.7271 198.788 60.7512Z" fill="white"/>
<path d="M234.816 66.3121C235.07 65.5295 235.578 65.4642 236.321 65.6603L236.036 64.5686L235.13 64.754C235.445 64.4255 235.642 64.2047 235.691 63.5705L234.432 64.4149C234.472 64.2594 234.612 63.9397 234.527 63.8531L234.065 63.3885C235.053 62.0089 236.087 62.8975 236.339 61.0939C236.356 60.9614 236.696 60.7088 236.661 60.594L236.503 60.0746L236.362 59.6083C236.316 59.4546 237.204 59.2974 237.159 58.8451C237.142 58.6526 236.332 57.3966 235.659 57.5503C235.569 56.9479 236.631 57.3419 236.873 56.5417C236.942 56.3173 236.632 55.9428 236.383 55.7344L235.978 54.5473C235.792 54.4113 235.497 54.2487 235.49 54.0968C235.454 53.3779 236.961 54.0739 236.91 53.3885L236.259 53.4591C236.305 53.4538 235.003 52.666 235.145 52.1961L235.679 51.9947C235.888 51.917 236.047 50.8271 235.617 50.6116C235.467 50.5374 235.254 50.6045 234.991 50.6805L234.525 50.8165C234.396 50.8536 234.479 50.3713 234.621 50.3536C235.017 50.306 235.652 49.8767 235.948 49.5905L236.938 48.6331C235.546 48.4529 235.649 48.974 234.929 48.6366C234.828 48.5889 234.812 48.2515 234.916 48.2144L235.444 48.0289C235.719 48.1667 235.831 48.2586 235.854 48.1756L236.003 47.6333C235.981 47.6156 236.36 47.9707 236.47 48.0766L237.517 48.0113L237.848 47.9919C237.915 47.9883 238.085 48.0219 238.056 48.0837L237.805 48.6331L238.849 48.5395L239.095 47.3754C239.121 47.2482 239.02 46.7553 238.897 46.7942L238.309 46.9708C238.235 46.992 237.906 46.8666 237.911 46.7906C237.917 46.7147 237.917 46.6211 237.915 46.5363C237.924 46.9125 238.729 45.7678 239.383 45.9798L238.704 44.7062L237.683 44.4836L238.856 44.0879L238.553 43.051C238.488 42.8266 239.084 42.4645 239.066 42.2278C238.971 40.9524 237.841 42.1183 238.254 39.8325L237.294 38.9139L238.437 38.5571C238.53 38.527 238.748 38.4104 238.833 38.3645C238.913 38.3203 238.573 38.1896 238.465 38.1684L237.437 37.9741L238.679 37.3823L238.382 36.7482C238.302 36.5768 238.504 36.1087 238.691 36.091L239.85 35.985C240.867 36.3825 241.807 36.0893 242.38 35.0347C242.491 34.8298 242.348 34.6796 242.033 34.3722C241.9 34.2433 241.663 34.427 241.304 34.7591L239.916 34.3369L240.744 33.7186C241.541 34.003 242.297 34.2716 243.033 33.3742L241.327 33.0615L242.286 32.7029C242.484 32.6287 242.833 32.3549 242.87 32.1694C243.003 31.5176 241.177 30.9594 240.476 31.1272L241.794 30.1945L242.983 29.903C243.118 29.8695 243.408 29.6646 243.447 29.5374C243.655 28.8537 241.589 29.4879 241.389 28.1277C242.134 28.0535 242.64 28.6948 243.102 27.7055C243.156 27.5872 242.769 27.4317 242.636 27.407L241.934 27.271C241.755 27.2356 241.554 27.5836 241.387 27.7568C240.554 27.7656 240.445 25.9602 240.351 26.0609L240.883 25.4851C239.898 25.3314 239.613 24.2026 239.45 23.5896C239.422 23.4819 238.969 23.2716 239.042 23.1851L239.406 22.7505C239.548 22.5827 239.774 22.2471 239.855 22.0793C239.937 21.9115 239.62 21.5529 239.491 21.3656L238.492 19.9242L239.024 19.4242C239.139 19.3165 238.805 18.8872 238.638 18.9243C238.175 19.0303 237.069 19.0497 236.937 18.5657L237.149 17.9033C237.193 17.7637 236.8 17.497 236.652 17.4422L234.929 16.7904C234.007 16.4424 233.018 16.9211 232.137 16.0856C233.335 15.8188 236.53 16.3082 237.156 16.0043C237.273 15.9478 237.282 15.568 237.174 15.4991L236.569 15.1175C236.988 14.6989 237.678 14.7572 238.239 14.6247C238.668 14.5222 239.22 14.2078 239.7 14.1848L242.541 14.0453C243.507 13.9976 244.467 13.8086 245.419 13.4041C240.531 13.639 228.417 13.7132 224.125 11.7577C223.43 11.4415 222.868 11.2012 222.008 11.1659C221.794 11.1571 221.995 10.447 222.201 10.3745C223.009 10.0866 223.773 9.78629 224.585 9.58138C227.311 8.89598 230.075 8.63101 232.884 8.48792L236.484 8.30421C239.075 8.17172 241.651 8.22825 244.243 8.47379C246.25 8.66457 248.182 8.74583 250.195 9.21041C247.696 9.19981 245.27 8.64337 242.559 9.12209C243.668 10.1696 245.15 9.6644 246.434 9.84105C247.804 10.0301 249.069 10.2862 250.553 10.5794C250.112 11.2631 249.318 11.2843 248.561 11.2613L247.399 11.226C246.403 11.8619 247.199 11.3691 245.658 11.7489C245.548 11.7754 245.768 12.171 245.875 12.2276C248.211 13.4676 248.593 12.9183 250.043 12.7681C253.243 12.4378 252.753 11.8884 255.678 11.3638L255.814 10.507C256.85 10.5724 257.089 11.4556 257.298 12.0933C257.652 13.1691 256.835 13.556 256.442 14.3279C254.975 17.2108 255.805 20.7191 258.055 22.9501L261.524 26.3895C263.389 28.2372 264.599 30.3252 265.708 32.6941C267.256 35.9992 268.174 39.435 268.445 43.1305C269.384 55.9446 265.766 66.895 260.882 78.5856C261.001 79.0078 261.733 78.8011 262.053 78.8294C263.928 78.9972 265.635 79.619 267.422 80.209C268.353 80.5164 270.49 80.9209 270.951 81.2937C271.624 81.836 272.149 83.6855 272.271 84.7153L269.925 86.685C269.101 87.3757 267.626 87.6618 266.543 87.948C265.676 88.1777 265.133 88.5451 264.309 88.8295L258.945 90.6825C256.585 91.4986 255.395 91.4916 252.929 91.3874C252.129 91.3538 251.198 91.4492 250.332 91.4686L248.72 91.5057L246.776 91.746C244.681 92.0039 242.601 91.799 240.515 91.6894L236.954 91.5022C232.887 91.2884 224.578 90.0731 221.84 86.6779C223.327 87.6247 224.782 88.4497 226.45 88.9955L227.239 88.9037C227.708 89.2322 228.168 89.3135 228.741 89.4177L232.189 90.0431C232.484 90.0961 234.479 90.0431 234.347 89.3647C234.318 89.2199 234.2 89.0538 234.009 88.8295C233.483 88.2112 233.192 88.4002 232.21 88.3048C232.153 88.2995 232.201 88.3561 232.194 88.4285L232.148 88.8648L231.562 87.8738L233.034 87.4993L231.9 86.7927L233.489 86.5419C233.705 86.5083 233.317 85.8812 233.08 85.8017L233.4 85.104C233.512 84.8637 232.983 84.5511 232.737 84.4539L231.292 83.8816C231.116 83.8127 231.164 83.3022 231.327 83.1661C231.469 83.046 231.789 82.8994 231.992 82.857L232.85 82.6839C232.827 82.486 232.825 82.29 232.714 82.2493L232.01 81.9967L233.025 81.1223C232.794 80.8785 232.39 80.8909 232.003 81.1559L231.159 80.5182L232.233 79.6296C232.303 79.5713 232.774 79.6791 232.74 79.7639L232.602 80.1313C232.544 80.285 232.44 80.5924 232.56 80.6418L233.14 80.8803C233.296 80.9439 233.338 80.3468 233.268 80.1861C233.085 79.7692 233.179 79.5643 233.395 79.1209C233.708 78.4796 232.074 78.3277 231.769 78.2571C231.645 78.2288 231.95 77.9621 232.141 77.69C232.056 77.607 231.587 77.3579 231.178 77.1389C232.181 76.2839 234.05 77.6035 234.52 76.9322C234.874 75.4572 235.654 76.3581 235.898 75.6179C235.942 75.4837 235.571 75.3088 235.429 75.2982L232.491 75.0633C231.939 75.0191 231.207 75.2929 230.977 74.3355L232.744 74.4291C232.905 74.1888 233.105 73.7349 233.253 73.3692L232.249 73.1237L233.326 71.5532L232.445 70.352L233.186 69.7709L235.527 69.8733L235.52 69.414L234.037 69.5271C234.005 69.5147 233.878 69.2144 233.889 69.112C233.903 68.9759 234.113 68.8399 234.287 68.7286L235.047 68.2323L233.321 67.9019C233.821 67.372 235.445 67.9267 236.006 66.4446L234.81 66.305L234.816 66.3121Z" fill="white"/>
</g>
<path d="M9.91406 120.422C9.80859 119.889 9.60059 119.432 9.29004 119.051C8.97949 118.664 8.59277 118.371 8.12988 118.172C7.67285 117.973 7.17188 117.873 6.62695 117.873C5.88867 117.873 5.22949 118.061 4.64941 118.436C4.06934 118.805 3.61523 119.347 3.28711 120.062C2.95898 120.776 2.79492 121.635 2.79492 122.637C2.79492 123.639 2.95898 124.5 3.28711 125.221C3.62109 125.936 4.0752 126.478 4.64941 126.847C5.22949 127.216 5.88867 127.4 6.62695 127.4C7.16602 127.4 7.66406 127.304 8.12109 127.11C8.57812 126.911 8.96191 126.624 9.27246 126.249C9.58887 125.868 9.80273 125.414 9.91406 124.887L11.8652 124.904C11.7305 125.736 11.4229 126.478 10.9424 127.128C10.4678 127.772 9.85547 128.276 9.10547 128.64C8.36133 128.997 7.5293 129.176 6.60938 129.176C5.50195 129.176 4.51465 128.912 3.64746 128.385C2.78027 127.857 2.10059 127.102 1.6084 126.117C1.12207 125.127 0.878906 123.967 0.878906 122.637C0.878906 121.307 1.125 120.149 1.61719 119.165C2.10938 118.175 2.78906 117.416 3.65625 116.889C4.52344 116.361 5.50781 116.098 6.60938 116.098C7.50586 116.098 8.32617 116.271 9.07031 116.616C9.81445 116.956 10.4297 117.451 10.916 118.102C11.4023 118.752 11.7188 119.525 11.8652 120.422H9.91406ZM17.9121 129.193C16.9863 129.193 16.1807 128.991 15.4951 128.587C14.8154 128.183 14.291 127.611 13.9219 126.873C13.5586 126.135 13.377 125.273 13.377 124.289C13.377 123.316 13.5586 122.455 13.9219 121.705C14.291 120.955 14.8096 120.372 15.4775 119.956C16.1455 119.54 16.916 119.332 17.7891 119.332C18.5566 119.332 19.2598 119.499 19.8984 119.833C20.5371 120.167 21.0498 120.694 21.4365 121.415C21.8291 122.13 22.0254 123.035 22.0254 124.131V124.799H15.2402C15.2578 125.391 15.3779 125.903 15.6006 126.337C15.8291 126.765 16.1426 127.09 16.541 127.312C16.9395 127.535 17.4023 127.646 17.9297 127.646C18.4395 127.646 18.8701 127.553 19.2217 127.365C19.5732 127.172 19.834 126.92 20.0039 126.609H21.9023C21.7617 127.125 21.5098 127.579 21.1465 127.972C20.7832 128.358 20.3232 128.66 19.7666 128.877C19.2158 129.088 18.5977 129.193 17.9121 129.193ZM20.1797 123.393C20.1797 122.906 20.0801 122.473 19.8809 122.092C19.6875 121.711 19.4121 121.415 19.0547 121.204C18.6973 120.987 18.2812 120.879 17.8066 120.879C17.3203 120.879 16.8867 120.993 16.5059 121.222C16.1309 121.444 15.835 121.749 15.6182 122.136C15.4014 122.517 15.2783 122.936 15.249 123.393H20.1797ZM23.8887 119.455H25.6992V120.967H25.8047C25.9805 120.457 26.2881 120.056 26.7275 119.763C27.167 119.464 27.668 119.314 28.2305 119.314C28.5 119.314 28.7637 119.326 29.0215 119.35V121.143C28.916 121.119 28.7666 121.096 28.5732 121.072C28.3857 121.049 28.207 121.037 28.0371 121.037C27.6094 121.037 27.2227 121.131 26.877 121.318C26.5312 121.5 26.2588 121.755 26.0596 122.083C25.8662 122.405 25.7695 122.771 25.7695 123.182V129H23.8887V119.455ZM29.8828 126.311C29.8828 125.32 30.2168 124.614 30.8848 124.192C31.5527 123.771 32.4082 123.521 33.4512 123.445C33.8496 123.416 34.2832 123.39 34.752 123.366C35.2266 123.337 35.6279 123.316 35.9561 123.305L35.9473 122.549C35.9473 122.004 35.7832 121.585 35.4551 121.292C35.127 120.993 34.6465 120.844 34.0137 120.844C33.4805 120.844 33.0439 120.955 32.7041 121.178C32.3643 121.395 32.1445 121.688 32.0449 122.057H30.1816C30.2402 121.529 30.4365 121.061 30.7705 120.65C31.1045 120.234 31.5557 119.912 32.124 119.684C32.6982 119.449 33.3516 119.332 34.084 119.332C34.6875 119.332 35.2676 119.426 35.8242 119.613C36.3867 119.801 36.8613 120.141 37.248 120.633C37.6348 121.125 37.8281 121.799 37.8281 122.654V129H36V127.699H35.9297C35.7129 128.121 35.3672 128.479 34.8926 128.771C34.4238 129.064 33.8262 129.211 33.0996 129.211C32.4902 129.211 31.9424 129.097 31.4561 128.868C30.9697 128.64 30.5859 128.309 30.3047 127.875C30.0234 127.436 29.8828 126.914 29.8828 126.311ZM31.7109 126.328C31.7109 126.773 31.875 127.116 32.2031 127.356C32.5371 127.597 32.9766 127.717 33.5215 127.717C34.0137 127.717 34.4443 127.62 34.8135 127.427C35.1826 127.228 35.4668 126.964 35.666 126.636C35.8652 126.302 35.9648 125.941 35.9648 125.555L35.9561 124.685L33.7148 124.834C33.0762 124.881 32.5811 125.027 32.2295 125.273C31.8838 125.514 31.7109 125.865 31.7109 126.328ZM40.0957 119.455H41.9062V121.02H42.0117C42.2168 120.48 42.542 120.064 42.9873 119.771C43.4385 119.479 43.9805 119.332 44.6133 119.332C45.2402 119.332 45.7734 119.481 46.2129 119.78C46.6523 120.073 46.9746 120.486 47.1797 121.02H47.2852C47.5195 120.492 47.8828 120.079 48.375 119.78C48.873 119.481 49.4648 119.332 50.1504 119.332C50.7363 119.332 51.249 119.455 51.6885 119.701C52.1338 119.947 52.4795 120.316 52.7256 120.809C52.9775 121.295 53.1035 121.893 53.1035 122.602V129H51.2227V122.777C51.2227 122.168 51.0557 121.711 50.7217 121.406C50.3877 121.102 49.957 120.949 49.4297 120.949C49.0371 120.949 48.6973 121.034 48.4102 121.204C48.123 121.368 47.9033 121.6 47.751 121.898C47.6045 122.197 47.5312 122.537 47.5312 122.918V129H45.668V122.672C45.668 122.332 45.5947 122.033 45.4482 121.775C45.3018 121.512 45.0967 121.31 44.833 121.169C44.5693 121.022 44.2676 120.949 43.9277 120.949C43.5762 120.949 43.251 121.043 42.9521 121.23C42.6533 121.412 42.416 121.667 42.2402 121.995C42.0645 122.323 41.9766 122.695 41.9766 123.111V129H40.0957V119.455ZM55.3711 119.455H57.252V129H55.3711V119.455ZM56.3203 117.979C56.1094 117.979 55.9102 117.929 55.7227 117.829C55.541 117.729 55.3945 117.595 55.2832 117.425C55.1777 117.255 55.125 117.07 55.125 116.871C55.125 116.672 55.1777 116.487 55.2832 116.317C55.3945 116.147 55.541 116.013 55.7227 115.913C55.9102 115.813 56.1094 115.764 56.3203 115.764C56.5312 115.764 56.7246 115.813 56.9004 115.913C57.082 116.013 57.2256 116.147 57.3311 116.317C57.4424 116.487 57.498 116.672 57.498 116.871C57.498 117.07 57.4424 117.255 57.3311 117.425C57.2256 117.595 57.082 117.729 56.9004 117.829C56.7246 117.929 56.5312 117.979 56.3203 117.979ZM63.5801 129.193C62.6719 129.193 61.8809 128.985 61.207 128.569C60.5332 128.147 60.0146 127.564 59.6514 126.82C59.2939 126.076 59.1152 125.227 59.1152 124.271C59.1152 123.305 59.2969 122.449 59.6602 121.705C60.0293 120.955 60.5479 120.372 61.2158 119.956C61.8838 119.54 62.6602 119.332 63.5449 119.332C64.2656 119.332 64.9131 119.467 65.4873 119.736C66.0615 120 66.5244 120.375 66.876 120.861C67.2275 121.348 67.4355 121.91 67.5 122.549H65.6719C65.5664 122.074 65.332 121.682 64.9688 121.371C64.6055 121.055 64.1426 120.896 63.5801 120.896C63.0645 120.896 62.6104 121.031 62.2178 121.301C61.8311 121.57 61.5293 121.957 61.3125 122.461C61.1016 122.959 60.9961 123.545 60.9961 124.219C60.9961 124.91 61.1016 125.511 61.3125 126.021C61.5293 126.524 61.8311 126.914 62.2178 127.189C62.6045 127.459 63.0586 127.594 63.5801 127.594C64.1133 127.594 64.5674 127.453 64.9424 127.172C65.3174 126.885 65.5605 126.486 65.6719 125.977H67.5C67.4297 126.598 67.2246 127.151 66.8848 127.638C66.5508 128.124 66.0996 128.505 65.5312 128.78C64.9629 129.056 64.3125 129.193 63.5801 129.193ZM78.1348 120.949H76.1836V126.188C76.1836 126.674 76.2832 127.008 76.4824 127.189C76.6875 127.365 76.9688 127.459 77.3262 127.471C77.4902 127.471 77.748 127.459 78.0996 127.436C78.1348 127.424 78.1934 127.418 78.2754 127.418V129.053C77.9238 129.1 77.5312 129.123 77.0977 129.123C76.5879 129.123 76.1221 129.029 75.7002 128.842C75.2783 128.654 74.9414 128.37 74.6895 127.989C74.4375 127.603 74.3145 127.131 74.3203 126.574V120.949H72.9141V119.455H74.3203V117.17H76.1836V119.455H78.1348V120.949ZM79.5234 126.311C79.5234 125.32 79.8574 124.614 80.5254 124.192C81.1934 123.771 82.0488 123.521 83.0918 123.445C83.4902 123.416 83.9238 123.39 84.3926 123.366C84.8672 123.337 85.2686 123.316 85.5967 123.305L85.5879 122.549C85.5879 122.004 85.4238 121.585 85.0957 121.292C84.7676 120.993 84.2871 120.844 83.6543 120.844C83.1211 120.844 82.6846 120.955 82.3447 121.178C82.0049 121.395 81.7852 121.688 81.6855 122.057H79.8223C79.8809 121.529 80.0771 121.061 80.4111 120.65C80.7451 120.234 81.1963 119.912 81.7646 119.684C82.3389 119.449 82.9922 119.332 83.7246 119.332C84.3281 119.332 84.9082 119.426 85.4648 119.613C86.0273 119.801 86.502 120.141 86.8887 120.633C87.2754 121.125 87.4688 121.799 87.4688 122.654V129H85.6406V127.699H85.5703C85.3535 128.121 85.0078 128.479 84.5332 128.771C84.0645 129.064 83.4668 129.211 82.7402 129.211C82.1309 129.211 81.583 129.097 81.0967 128.868C80.6104 128.64 80.2266 128.309 79.9453 127.875C79.6641 127.436 79.5234 126.914 79.5234 126.311ZM81.3516 126.328C81.3516 126.773 81.5156 127.116 81.8438 127.356C82.1777 127.597 82.6172 127.717 83.1621 127.717C83.6543 127.717 84.085 127.62 84.4541 127.427C84.8232 127.228 85.1074 126.964 85.3066 126.636C85.5059 126.302 85.6055 125.941 85.6055 125.555L85.5967 124.685L83.3555 124.834C82.7168 124.881 82.2217 125.027 81.8701 125.273C81.5244 125.514 81.3516 125.865 81.3516 126.328ZM89.8945 116.273H91.7578V121.002H91.8633C92.0391 120.703 92.2236 120.439 92.417 120.211C92.6104 119.982 92.8887 119.78 93.252 119.604C93.6152 119.423 94.0664 119.332 94.6055 119.332C95.3789 119.332 96.0703 119.528 96.6797 119.921C97.2891 120.313 97.7666 120.882 98.1123 121.626C98.458 122.364 98.6309 123.24 98.6309 124.254C98.6309 125.262 98.458 126.138 98.1123 126.882C97.7725 127.626 97.2979 128.197 96.6885 128.596C96.085 128.994 95.3965 129.193 94.623 129.193C94.0898 129.193 93.6387 129.105 93.2695 128.93C92.9062 128.748 92.6221 128.54 92.417 128.306C92.2119 128.065 92.0273 127.799 91.8633 127.506H91.7227V129H89.8945V116.273ZM91.7227 124.219C91.7227 124.887 91.8193 125.476 92.0127 125.985C92.2061 126.495 92.4902 126.891 92.8652 127.172C93.2402 127.453 93.6855 127.594 94.2012 127.594C94.7344 127.594 95.1885 127.45 95.5635 127.163C95.9443 126.87 96.2314 126.469 96.4248 125.959C96.6182 125.449 96.7148 124.869 96.7148 124.219C96.7148 123.58 96.6182 123.015 96.4248 122.522C96.2373 122.024 95.9531 121.635 95.5723 121.354C95.1973 121.072 94.7402 120.932 94.2012 120.932C93.6738 120.932 93.2256 121.066 92.8564 121.336C92.4873 121.605 92.2061 121.989 92.0127 122.487C91.8193 122.979 91.7227 123.557 91.7227 124.219ZM102.375 129H100.494V116.273H102.375V129ZM108.773 129.193C107.848 129.193 107.042 128.991 106.356 128.587C105.677 128.183 105.152 127.611 104.783 126.873C104.42 126.135 104.238 125.273 104.238 124.289C104.238 123.316 104.42 122.455 104.783 121.705C105.152 120.955 105.671 120.372 106.339 119.956C107.007 119.54 107.777 119.332 108.65 119.332C109.418 119.332 110.121 119.499 110.76 119.833C111.398 120.167 111.911 120.694 112.298 121.415C112.69 122.13 112.887 123.035 112.887 124.131V124.799H106.102C106.119 125.391 106.239 125.903 106.462 126.337C106.69 126.765 107.004 127.09 107.402 127.312C107.801 127.535 108.264 127.646 108.791 127.646C109.301 127.646 109.731 127.553 110.083 127.365C110.435 127.172 110.695 126.92 110.865 126.609H112.764C112.623 127.125 112.371 127.579 112.008 127.972C111.645 128.358 111.185 128.66 110.628 128.877C110.077 129.088 109.459 129.193 108.773 129.193ZM111.041 123.393C111.041 122.906 110.941 122.473 110.742 122.092C110.549 121.711 110.273 121.415 109.916 121.204C109.559 120.987 109.143 120.879 108.668 120.879C108.182 120.879 107.748 120.993 107.367 121.222C106.992 121.444 106.696 121.749 106.479 122.136C106.263 122.517 106.14 122.936 106.11 123.393H111.041ZM113.977 119.455H115.91L117.773 126.451H117.879L119.742 119.455H121.676L123.521 126.416H123.627L125.473 119.455H127.406L124.611 129H122.695L120.762 122.127H120.621L118.705 129H116.771L113.977 119.455ZM128.514 126.311C128.514 125.32 128.848 124.614 129.516 124.192C130.184 123.771 131.039 123.521 132.082 123.445C132.48 123.416 132.914 123.39 133.383 123.366C133.857 123.337 134.259 123.316 134.587 123.305L134.578 122.549C134.578 122.004 134.414 121.585 134.086 121.292C133.758 120.993 133.277 120.844 132.645 120.844C132.111 120.844 131.675 120.955 131.335 121.178C130.995 121.395 130.775 121.688 130.676 122.057H128.812C128.871 121.529 129.067 121.061 129.401 120.65C129.735 120.234 130.187 119.912 130.755 119.684C131.329 119.449 131.982 119.332 132.715 119.332C133.318 119.332 133.898 119.426 134.455 119.613C135.018 119.801 135.492 120.141 135.879 120.633C136.266 121.125 136.459 121.799 136.459 122.654V129H134.631V127.699H134.561C134.344 128.121 133.998 128.479 133.523 128.771C133.055 129.064 132.457 129.211 131.73 129.211C131.121 129.211 130.573 129.097 130.087 128.868C129.601 128.64 129.217 128.309 128.936 127.875C128.654 127.436 128.514 126.914 128.514 126.311ZM130.342 126.328C130.342 126.773 130.506 127.116 130.834 127.356C131.168 127.597 131.607 127.717 132.152 127.717C132.645 127.717 133.075 127.62 133.444 127.427C133.813 127.228 134.098 126.964 134.297 126.636C134.496 126.302 134.596 125.941 134.596 125.555L134.587 124.685L132.346 124.834C131.707 124.881 131.212 125.027 130.86 125.273C130.515 125.514 130.342 125.865 130.342 126.328ZM138.727 119.455H140.537V120.967H140.643C140.818 120.457 141.126 120.056 141.565 119.763C142.005 119.464 142.506 119.314 143.068 119.314C143.338 119.314 143.602 119.326 143.859 119.35V121.143C143.754 121.119 143.604 121.096 143.411 121.072C143.224 121.049 143.045 121.037 142.875 121.037C142.447 121.037 142.061 121.131 141.715 121.318C141.369 121.5 141.097 121.755 140.897 122.083C140.704 122.405 140.607 122.771 140.607 123.182V129H138.727V119.455ZM149.062 129.193C148.137 129.193 147.331 128.991 146.646 128.587C145.966 128.183 145.441 127.611 145.072 126.873C144.709 126.135 144.527 125.273 144.527 124.289C144.527 123.316 144.709 122.455 145.072 121.705C145.441 120.955 145.96 120.372 146.628 119.956C147.296 119.54 148.066 119.332 148.939 119.332C149.707 119.332 150.41 119.499 151.049 119.833C151.688 120.167 152.2 120.694 152.587 121.415C152.979 122.13 153.176 123.035 153.176 124.131V124.799H146.391C146.408 125.391 146.528 125.903 146.751 126.337C146.979 126.765 147.293 127.09 147.691 127.312C148.09 127.535 148.553 127.646 149.08 127.646C149.59 127.646 150.021 127.553 150.372 127.365C150.724 127.172 150.984 126.92 151.154 126.609H153.053C152.912 127.125 152.66 127.579 152.297 127.972C151.934 128.358 151.474 128.66 150.917 128.877C150.366 129.088 149.748 129.193 149.062 129.193ZM151.33 123.393C151.33 122.906 151.23 122.473 151.031 122.092C150.838 121.711 150.562 121.415 150.205 121.204C149.848 120.987 149.432 120.879 148.957 120.879C148.471 120.879 148.037 120.993 147.656 121.222C147.281 121.444 146.985 121.749 146.769 122.136C146.552 122.517 146.429 122.936 146.399 123.393H151.33ZM163.986 120.949H161.93V129H160.049V120.949H158.572V119.455H160.049V118.348C160.049 117.504 160.301 116.848 160.805 116.379C161.314 115.91 162.012 115.676 162.896 115.676C163.324 115.676 163.752 115.717 164.18 115.799V117.363C163.869 117.316 163.605 117.293 163.389 117.293C162.885 117.293 162.516 117.401 162.281 117.618C162.047 117.829 161.93 118.166 161.93 118.629V119.455H163.986V120.949ZM169.348 129.193C168.457 129.193 167.675 128.988 167.001 128.578C166.327 128.168 165.806 127.594 165.437 126.855C165.067 126.111 164.883 125.25 164.883 124.271C164.883 123.287 165.067 122.423 165.437 121.679C165.806 120.935 166.327 120.357 167.001 119.947C167.675 119.537 168.457 119.332 169.348 119.332C170.232 119.332 171.012 119.537 171.686 119.947C172.359 120.357 172.878 120.938 173.241 121.688C173.61 122.432 173.795 123.293 173.795 124.271C173.795 125.25 173.61 126.111 173.241 126.855C172.878 127.594 172.359 128.168 171.686 128.578C171.012 128.988 170.232 129.193 169.348 129.193ZM169.348 127.629C169.904 127.629 170.373 127.479 170.754 127.181C171.135 126.882 171.419 126.48 171.606 125.977C171.8 125.467 171.896 124.898 171.896 124.271C171.896 123.645 171.8 123.076 171.606 122.566C171.419 122.051 171.132 121.641 170.745 121.336C170.364 121.031 169.898 120.879 169.348 120.879C168.785 120.879 168.308 121.031 167.915 121.336C167.528 121.641 167.238 122.051 167.045 122.566C166.857 123.076 166.764 123.645 166.764 124.271C166.764 124.898 166.857 125.467 167.045 125.977C167.238 126.48 167.528 126.882 167.915 127.181C168.308 127.479 168.785 127.629 169.348 127.629ZM175.641 119.455H177.451V120.967H177.557C177.732 120.457 178.04 120.056 178.479 119.763C178.919 119.464 179.42 119.314 179.982 119.314C180.252 119.314 180.516 119.326 180.773 119.35V121.143C180.668 121.119 180.519 121.096 180.325 121.072C180.138 121.049 179.959 121.037 179.789 121.037C179.361 121.037 178.975 121.131 178.629 121.318C178.283 121.5 178.011 121.755 177.812 122.083C177.618 122.405 177.521 122.771 177.521 123.182V129H175.641V119.455ZM190.617 129.193C189.709 129.193 188.918 128.985 188.244 128.569C187.57 128.147 187.052 127.564 186.688 126.82C186.331 126.076 186.152 125.227 186.152 124.271C186.152 123.305 186.334 122.449 186.697 121.705C187.066 120.955 187.585 120.372 188.253 119.956C188.921 119.54 189.697 119.332 190.582 119.332C191.303 119.332 191.95 119.467 192.524 119.736C193.099 120 193.562 120.375 193.913 120.861C194.265 121.348 194.473 121.91 194.537 122.549H192.709C192.604 122.074 192.369 121.682 192.006 121.371C191.643 121.055 191.18 120.896 190.617 120.896C190.102 120.896 189.647 121.031 189.255 121.301C188.868 121.57 188.566 121.957 188.35 122.461C188.139 122.959 188.033 123.545 188.033 124.219C188.033 124.91 188.139 125.511 188.35 126.021C188.566 126.524 188.868 126.914 189.255 127.189C189.642 127.459 190.096 127.594 190.617 127.594C191.15 127.594 191.604 127.453 191.979 127.172C192.354 126.885 192.598 126.486 192.709 125.977H194.537C194.467 126.598 194.262 127.151 193.922 127.638C193.588 128.124 193.137 128.505 192.568 128.78C192 129.056 191.35 129.193 190.617 129.193ZM195.873 126.311C195.873 125.32 196.207 124.614 196.875 124.192C197.543 123.771 198.398 123.521 199.441 123.445C199.84 123.416 200.273 123.39 200.742 123.366C201.217 123.337 201.618 123.316 201.946 123.305L201.938 122.549C201.938 122.004 201.773 121.585 201.445 121.292C201.117 120.993 200.637 120.844 200.004 120.844C199.471 120.844 199.034 120.955 198.694 121.178C198.354 121.395 198.135 121.688 198.035 122.057H196.172C196.23 121.529 196.427 121.061 196.761 120.65C197.095 120.234 197.546 119.912 198.114 119.684C198.688 119.449 199.342 119.332 200.074 119.332C200.678 119.332 201.258 119.426 201.814 119.613C202.377 119.801 202.852 120.141 203.238 120.633C203.625 121.125 203.818 121.799 203.818 122.654V129H201.99V127.699H201.92C201.703 128.121 201.357 128.479 200.883 128.771C200.414 129.064 199.816 129.211 199.09 129.211C198.48 129.211 197.933 129.097 197.446 128.868C196.96 128.64 196.576 128.309 196.295 127.875C196.014 127.436 195.873 126.914 195.873 126.311ZM197.701 126.328C197.701 126.773 197.865 127.116 198.193 127.356C198.527 127.597 198.967 127.717 199.512 127.717C200.004 127.717 200.435 127.62 200.804 127.427C201.173 127.228 201.457 126.964 201.656 126.636C201.855 126.302 201.955 125.941 201.955 125.555L201.946 124.685L199.705 124.834C199.066 124.881 198.571 125.027 198.22 125.273C197.874 125.514 197.701 125.865 197.701 126.328ZM207.967 129H206.086V116.273H207.967V129ZM210.252 119.455H212.062V121.02H212.168C212.373 120.48 212.698 120.064 213.144 119.771C213.595 119.479 214.137 119.332 214.77 119.332C215.396 119.332 215.93 119.481 216.369 119.78C216.809 120.073 217.131 120.486 217.336 121.02H217.441C217.676 120.492 218.039 120.079 218.531 119.78C219.029 119.481 219.621 119.332 220.307 119.332C220.893 119.332 221.405 119.455 221.845 119.701C222.29 119.947 222.636 120.316 222.882 120.809C223.134 121.295 223.26 121.893 223.26 122.602V129H221.379V122.777C221.379 122.168 221.212 121.711 220.878 121.406C220.544 121.102 220.113 120.949 219.586 120.949C219.193 120.949 218.854 121.034 218.566 121.204C218.279 121.368 218.06 121.6 217.907 121.898C217.761 122.197 217.688 122.537 217.688 122.918V129H215.824V122.672C215.824 122.332 215.751 122.033 215.604 121.775C215.458 121.512 215.253 121.31 214.989 121.169C214.726 121.022 214.424 120.949 214.084 120.949C213.732 120.949 213.407 121.043 213.108 121.23C212.81 121.412 212.572 121.667 212.396 121.995C212.221 122.323 212.133 122.695 212.133 123.111V129H210.252V119.455ZM226.389 132.639H224.895L225.826 127.787H227.795L226.389 132.639ZM238.641 129.193C237.715 129.193 236.909 128.991 236.224 128.587C235.544 128.183 235.02 127.611 234.65 126.873C234.287 126.135 234.105 125.273 234.105 124.289C234.105 123.316 234.287 122.455 234.65 121.705C235.02 120.955 235.538 120.372 236.206 119.956C236.874 119.54 237.645 119.332 238.518 119.332C239.285 119.332 239.988 119.499 240.627 119.833C241.266 120.167 241.778 120.694 242.165 121.415C242.558 122.13 242.754 123.035 242.754 124.131V124.799H235.969C235.986 125.391 236.106 125.903 236.329 126.337C236.558 126.765 236.871 127.09 237.27 127.312C237.668 127.535 238.131 127.646 238.658 127.646C239.168 127.646 239.599 127.553 239.95 127.365C240.302 127.172 240.562 126.92 240.732 126.609H242.631C242.49 127.125 242.238 127.579 241.875 127.972C241.512 128.358 241.052 128.66 240.495 128.877C239.944 129.088 239.326 129.193 238.641 129.193ZM240.908 123.393C240.908 122.906 240.809 122.473 240.609 122.092C240.416 121.711 240.141 121.415 239.783 121.204C239.426 120.987 239.01 120.879 238.535 120.879C238.049 120.879 237.615 120.993 237.234 121.222C236.859 121.444 236.563 121.749 236.347 122.136C236.13 122.517 236.007 122.936 235.978 123.393H240.908ZM249.047 129H247.025L243.562 119.455H245.584L247.992 126.785H248.08L250.488 119.455H252.51L249.047 129ZM257.818 129.193C256.893 129.193 256.087 128.991 255.401 128.587C254.722 128.183 254.197 127.611 253.828 126.873C253.465 126.135 253.283 125.273 253.283 124.289C253.283 123.316 253.465 122.455 253.828 121.705C254.197 120.955 254.716 120.372 255.384 119.956C256.052 119.54 256.822 119.332 257.695 119.332C258.463 119.332 259.166 119.499 259.805 119.833C260.443 120.167 260.956 120.694 261.343 121.415C261.735 122.13 261.932 123.035 261.932 124.131V124.799H255.146C255.164 125.391 255.284 125.903 255.507 126.337C255.735 126.765 256.049 127.09 256.447 127.312C256.846 127.535 257.309 127.646 257.836 127.646C258.346 127.646 258.776 127.553 259.128 127.365C259.479 127.172 259.74 126.92 259.91 126.609H261.809C261.668 127.125 261.416 127.579 261.053 127.972C260.689 128.358 260.229 128.66 259.673 128.877C259.122 129.088 258.504 129.193 257.818 129.193ZM260.086 123.393C260.086 122.906 259.986 122.473 259.787 122.092C259.594 121.711 259.318 121.415 258.961 121.204C258.604 120.987 258.188 120.879 257.713 120.879C257.227 120.879 256.793 120.993 256.412 121.222C256.037 121.444 255.741 121.749 255.524 122.136C255.308 122.517 255.185 122.936 255.155 123.393H260.086ZM263.795 119.455H265.605V120.967H265.711C265.887 120.457 266.194 120.056 266.634 119.763C267.073 119.464 267.574 119.314 268.137 119.314C268.406 119.314 268.67 119.326 268.928 119.35V121.143C268.822 121.119 268.673 121.096 268.479 121.072C268.292 121.049 268.113 121.037 267.943 121.037C267.516 121.037 267.129 121.131 266.783 121.318C266.438 121.5 266.165 121.755 265.966 122.083C265.772 122.405 265.676 122.771 265.676 123.182V129H263.795V119.455ZM271.793 132.586C271.371 132.586 271.037 132.568 270.791 132.533V130.969C271.072 130.992 271.354 131.004 271.635 131.004C271.875 131.004 272.074 130.98 272.232 130.934C272.391 130.887 272.546 130.772 272.698 130.591C272.856 130.409 273.006 130.131 273.146 129.756L273.375 129.123L269.877 119.455H271.881L274.289 126.855H274.395L276.803 119.455H278.824L274.887 130.266C274.611 131.033 274.219 131.61 273.709 131.997C273.205 132.39 272.566 132.586 271.793 132.586ZM283.588 129.193C282.82 129.193 282.135 128.994 281.531 128.596C280.928 128.197 280.453 127.626 280.107 126.882C279.768 126.132 279.598 125.256 279.598 124.254C279.598 123.24 279.768 122.364 280.107 121.626C280.453 120.882 280.928 120.313 281.531 119.921C282.141 119.528 282.832 119.332 283.605 119.332C284.15 119.332 284.604 119.423 284.968 119.604C285.337 119.78 285.621 119.985 285.82 120.22C286.025 120.454 286.207 120.715 286.365 121.002H286.453V116.273H288.334V129H286.506V127.506H286.365C286.107 127.975 285.771 128.373 285.354 128.701C284.938 129.029 284.35 129.193 283.588 129.193ZM284.01 127.594C284.531 127.594 284.979 127.453 285.354 127.172C285.729 126.891 286.014 126.495 286.207 125.985C286.406 125.476 286.506 124.887 286.506 124.219C286.506 123.551 286.409 122.971 286.216 122.479C286.022 121.986 285.738 121.605 285.363 121.336C284.988 121.066 284.537 120.932 284.01 120.932C283.471 120.932 283.014 121.072 282.639 121.354C282.264 121.635 281.982 122.024 281.795 122.522C281.607 123.015 281.514 123.58 281.514 124.219C281.514 124.869 281.607 125.449 281.795 125.959C281.988 126.469 282.272 126.87 282.647 127.163C283.028 127.45 283.482 127.594 284.01 127.594ZM290.338 126.311C290.338 125.32 290.672 124.614 291.34 124.192C292.008 123.771 292.863 123.521 293.906 123.445C294.305 123.416 294.738 123.39 295.207 123.366C295.682 123.337 296.083 123.316 296.411 123.305L296.402 122.549C296.402 122.004 296.238 121.585 295.91 121.292C295.582 120.993 295.102 120.844 294.469 120.844C293.936 120.844 293.499 120.955 293.159 121.178C292.819 121.395 292.6 121.688 292.5 122.057H290.637C290.695 121.529 290.892 121.061 291.226 120.65C291.56 120.234 292.011 119.912 292.579 119.684C293.153 119.449 293.807 119.332 294.539 119.332C295.143 119.332 295.723 119.426 296.279 119.613C296.842 119.801 297.316 120.141 297.703 120.633C298.09 121.125 298.283 121.799 298.283 122.654V129H296.455V127.699H296.385C296.168 128.121 295.822 128.479 295.348 128.771C294.879 129.064 294.281 129.211 293.555 129.211C292.945 129.211 292.397 129.097 291.911 128.868C291.425 128.64 291.041 128.309 290.76 127.875C290.479 127.436 290.338 126.914 290.338 126.311ZM292.166 126.328C292.166 126.773 292.33 127.116 292.658 127.356C292.992 127.597 293.432 127.717 293.977 127.717C294.469 127.717 294.899 127.62 295.269 127.427C295.638 127.228 295.922 126.964 296.121 126.636C296.32 126.302 296.42 125.941 296.42 125.555L296.411 124.685L294.17 124.834C293.531 124.881 293.036 125.027 292.685 125.273C292.339 125.514 292.166 125.865 292.166 126.328ZM301.359 132.586C300.938 132.586 300.604 132.568 300.357 132.533V130.969C300.639 130.992 300.92 131.004 301.201 131.004C301.441 131.004 301.641 130.98 301.799 130.934C301.957 130.887 302.112 130.772 302.265 130.591C302.423 130.409 302.572 130.131 302.713 129.756L302.941 129.123L299.443 119.455H301.447L303.855 126.855H303.961L306.369 119.455H308.391L304.453 130.266C304.178 131.033 303.785 131.61 303.275 131.997C302.771 132.39 302.133 132.586 301.359 132.586ZM320.379 119.455H322.242V129H320.414V127.348H320.309C320.08 127.881 319.72 128.312 319.228 128.64C318.735 128.962 318.146 129.123 317.461 129.123C316.84 129.123 316.292 128.985 315.817 128.71C315.343 128.435 314.974 128.027 314.71 127.488C314.446 126.949 314.314 126.293 314.314 125.52V119.455H316.195V125.291C316.195 125.719 316.277 126.094 316.441 126.416C316.605 126.738 316.831 126.987 317.118 127.163C317.411 127.333 317.748 127.418 318.129 127.418C318.492 127.418 318.847 127.33 319.192 127.154C319.538 126.973 319.822 126.703 320.045 126.346C320.268 125.982 320.379 125.543 320.379 125.027V119.455ZM329.889 122.057C329.801 121.664 329.602 121.359 329.291 121.143C328.986 120.92 328.582 120.809 328.078 120.809C327.727 120.809 327.41 120.867 327.129 120.984C326.848 121.096 326.628 121.248 326.47 121.441C326.317 121.635 326.244 121.852 326.25 122.092C326.238 122.379 326.353 122.622 326.593 122.821C326.839 123.021 327.223 123.182 327.744 123.305L329.256 123.656C330.135 123.85 330.788 124.16 331.216 124.588C331.644 125.01 331.863 125.561 331.875 126.24C331.869 126.814 331.708 127.327 331.392 127.778C331.081 128.224 330.633 128.572 330.047 128.824C329.461 129.07 328.77 129.193 327.973 129.193C326.836 129.193 325.934 128.95 325.266 128.464C324.598 127.978 324.205 127.289 324.088 126.398H326.004C326.162 127.254 326.812 127.682 327.955 127.682C328.564 127.682 329.048 127.567 329.405 127.339C329.769 127.104 329.953 126.785 329.959 126.381C329.947 126.07 329.821 125.812 329.581 125.607C329.347 125.402 328.98 125.244 328.482 125.133L326.988 124.816C326.127 124.623 325.474 124.304 325.028 123.858C324.589 123.413 324.369 122.859 324.369 122.197C324.369 121.635 324.521 121.137 324.826 120.703C325.137 120.27 325.57 119.933 326.127 119.692C326.684 119.452 327.328 119.332 328.061 119.332C328.758 119.332 329.367 119.446 329.889 119.675C330.416 119.897 330.832 120.214 331.137 120.624C331.447 121.034 331.635 121.512 331.699 122.057H329.889ZM337.816 129.193C336.891 129.193 336.085 128.991 335.399 128.587C334.72 128.183 334.195 127.611 333.826 126.873C333.463 126.135 333.281 125.273 333.281 124.289C333.281 123.316 333.463 122.455 333.826 121.705C334.195 120.955 334.714 120.372 335.382 119.956C336.05 119.54 336.82 119.332 337.693 119.332C338.461 119.332 339.164 119.499 339.803 119.833C340.441 120.167 340.954 120.694 341.341 121.415C341.733 122.13 341.93 123.035 341.93 124.131V124.799H335.145C335.162 125.391 335.282 125.903 335.505 126.337C335.733 126.765 336.047 127.09 336.445 127.312C336.844 127.535 337.307 127.646 337.834 127.646C338.344 127.646 338.774 127.553 339.126 127.365C339.478 127.172 339.738 126.92 339.908 126.609H341.807C341.666 127.125 341.414 127.579 341.051 127.972C340.688 128.358 340.228 128.66 339.671 128.877C339.12 129.088 338.502 129.193 337.816 129.193ZM340.084 123.393C340.084 122.906 339.984 122.473 339.785 122.092C339.592 121.711 339.316 121.415 338.959 121.204C338.602 120.987 338.186 120.879 337.711 120.879C337.225 120.879 336.791 120.993 336.41 121.222C336.035 121.444 335.739 121.749 335.522 122.136C335.306 122.517 335.183 122.936 335.153 123.393H340.084ZM345.023 129.123C344.801 129.123 344.59 129.067 344.391 128.956C344.197 128.845 344.045 128.692 343.934 128.499C343.822 128.306 343.77 128.098 343.775 127.875C343.77 127.652 343.822 127.444 343.934 127.251C344.045 127.058 344.197 126.905 344.391 126.794C344.59 126.683 344.801 126.627 345.023 126.627C345.24 126.627 345.445 126.683 345.639 126.794C345.832 126.905 345.984 127.058 346.096 127.251C346.213 127.444 346.271 127.652 346.271 127.875C346.271 128.098 346.213 128.306 346.096 128.499C345.984 128.692 345.832 128.845 345.639 128.956C345.445 129.067 345.24 129.123 345.023 129.123Z" fill="white"/>
<defs>
<clipPath id="clip0_539_626">
<rect width="196.521" height="83.6378" fill="white" transform="translate(75.7502 8.23706)"/>
</clipPath>
</defs>
</svg>
