<svg width="164" height="70" viewBox="0 0 164 70" fill="none" xmlns="http://www.w3.org/2000/svg">
<g clip-path="url(#clip0_133_334)">
<path d="M94.5194 21.6756L94.3737 18.8415L92.3009 21.5594L90.2269 18.6498L90.1207 22.0107L89.2861 22.0231L89.3219 16.9644C89.5343 16.9261 90.0935 16.9236 90.2367 17.1165L92.3787 20.0038L94.3836 17.1177C94.5206 16.9199 95.1935 16.8717 95.3614 17.0794L95.3663 21.8772C95.3663 22.0429 94.8429 22.2741 94.749 22.1727C94.6552 22.0713 94.5243 21.824 94.5169 21.6744L94.5194 21.6756Z" fill="#87520E"/>
<path d="M75.901 21.9674C74.1171 22.7822 74.5948 19.6563 72.4159 20.4081C71.9196 21.4307 72.5159 20.5923 72.048 22.0774C71.9986 22.2345 71.3628 22.002 71.364 21.7918L71.3776 16.9619C72.627 16.9408 75.6047 16.5291 75.8183 18.2058C75.922 19.0195 75.5689 19.6291 74.8467 20.2721L75.9022 21.9661L75.901 21.9674ZM74.9825 18.5879C74.964 17.5121 73.2591 17.7075 72.2393 17.679L72.2862 19.4374C73.2183 19.5017 75.001 19.6093 74.9825 18.5879Z" fill="#87520E"/>
<path d="M66.6024 19.8085L63.9728 19.9321C63.6839 20.0682 63.7925 21.2985 64.1765 21.3109L66.9234 21.3925L67.0172 21.9304C67.0407 22.0652 66.7135 22.1233 66.5333 22.1233L62.916 22.1085L62.9493 16.9385H66.8999L66.9123 17.4875C66.9135 17.5716 66.5876 17.6619 66.5024 17.6631L63.9925 17.7039C63.8234 17.9524 63.8259 18.776 63.9864 19.0493L66.1863 19.0777C66.2604 19.0901 66.3937 19.3262 66.6036 19.806L66.6024 19.8085Z" fill="#87520E"/>
<path d="M117.599 21.9625C116.014 22.6204 113.503 21.8327 113.917 21.2206C113.998 21.0994 114.373 20.9041 114.53 20.9857C115.631 21.5644 117.413 21.6435 117.592 20.6951C117.624 20.5257 117.262 20.1238 117.083 20.0892L115.389 19.7516C114.685 19.6119 114.099 19.2013 114.048 18.5596C113.998 17.9623 114.356 17.2402 115.015 17.0275C116.555 16.5317 118.536 17.187 118.119 17.7509C117.551 18.5188 117.118 17.1079 115.376 17.6977C115.193 17.7595 114.873 18.2022 114.928 18.379C114.982 18.5559 115.318 18.8168 115.503 18.8588L117.797 19.3806C118.183 19.4684 118.547 20.2982 118.522 20.6765C118.492 21.0858 118.13 21.7412 117.601 21.9613L117.599 21.9625Z" fill="#87520E"/>
<path d="M85.2639 21.9046C83.6688 22.7838 84.9207 20.7534 82.6639 20.8795C82.1738 20.9067 81.2652 20.8968 80.9442 21.1491C80.7812 21.2764 80.5874 21.7785 80.4652 21.9392C80.343 22.1 79.8923 22.0554 79.543 21.9738L81.8936 17.0697C81.9911 16.8669 82.7294 16.8521 82.8466 17.0858L85.2639 21.9033V21.9046ZM83.4429 20.0869L82.375 18.0899L81.396 20.1277L83.4429 20.0881V20.0869Z" fill="#87520E"/>
<path d="M106.222 20.4071C107.246 22.2372 109.399 20.9759 109.778 20.9376C109.945 20.9202 110.182 21.4544 110.029 21.5694C109.174 22.2075 107.322 22.5747 106.223 21.7895C104.758 20.7409 104.613 18.645 106.014 17.4381C107.038 16.5565 109.035 16.7494 109.903 17.5024C110.028 17.61 109.772 18.1541 109.624 18.1009L108.88 17.8363C108.125 17.568 107.201 17.6657 106.617 18.138C106.029 18.6129 105.769 19.5984 106.222 20.4083V20.4071Z" fill="#87520E"/>
<path d="M55.0643 20.7719C56.2322 22.0023 57.6865 20.997 58.2791 20.9698C58.4272 20.9636 58.6482 21.4347 58.5482 21.5349C58.0581 22.0245 56.7989 22.3609 56.0372 22.21C54.889 21.9825 54.1001 21.316 53.7841 20.3985C53.4236 19.3573 53.636 18.1628 54.573 17.4543C55.7137 16.5924 57.452 16.7247 58.5124 17.5656C58.4458 17.7338 58.2149 18.1566 58.0939 18.1121L57.3927 17.8549C56.5742 17.5545 55.6063 17.6286 55.0261 18.2308C54.4359 18.8429 54.3532 20.0214 55.0656 20.7719H55.0643Z" fill="#87520E"/>
<path d="M100.816 21.9899L99.9404 22.0518L99.9466 16.998L100.8 16.9424L100.816 21.9899Z" fill="#87520E"/>
<path d="M13.4341 28.0239H15.439V56.1997C15.8118 56.1997 16.4019 56.1169 17.2081 55.9512L22.1031 54.915V57.0282H13.4341V28.0239Z" fill="#87520E"/>
<path d="M24.6685 42.5262C24.6685 40.3993 24.9388 38.4171 25.4796 36.5809C26.0203 34.7446 26.7771 33.1421 27.7499 31.7744C28.7227 30.4068 29.8622 29.3434 31.1708 28.5842C32.4782 27.8249 33.8881 27.4453 35.4017 27.4453C36.9152 27.4453 38.3251 27.8249 39.6325 28.5842C40.9399 29.3446 42.0794 30.4068 43.0534 31.7744C44.0262 33.1421 44.783 34.7446 45.3238 36.5809C45.8645 38.4184 46.1349 40.4005 46.1349 42.5262C46.1349 44.6518 45.8645 46.6352 45.3238 48.4714C44.783 50.3089 44.0262 51.9103 43.0534 53.2779C42.0806 54.6455 40.9399 55.7089 39.6325 56.4682C38.3251 57.2274 36.9152 57.607 35.4017 57.607C33.8881 57.607 32.477 57.2274 31.1708 56.4682C29.8635 55.7089 28.724 54.6455 27.7499 53.2779C26.7771 51.9103 26.0203 50.3089 25.4796 48.4714C24.9388 46.6352 24.6685 44.653 24.6685 42.5262ZM26.9092 42.5262C26.9092 45.3442 27.2635 47.8087 27.9709 49.9219C28.6783 52.0352 29.6709 53.6785 30.9486 54.8532C32.2264 56.0279 33.7103 56.6141 35.4017 56.6141C37.093 56.6141 38.5757 56.0279 39.8547 54.8532C41.1325 53.6798 42.125 52.029 42.8324 49.9021C43.5398 47.7753 43.8941 45.317 43.8941 42.5262C43.8941 39.7353 43.5398 37.2845 42.8324 35.1712C42.125 33.058 41.1325 31.4084 39.8547 30.2201C38.5769 29.033 37.093 28.4383 35.4017 28.4383C33.7103 28.4383 32.2313 29.0256 30.9634 30.1991C29.6956 31.3738 28.703 33.0172 27.9857 35.1304C27.2684 37.2437 26.9092 39.7093 26.9092 42.5262Z" fill="#87520E"/>
<path d="M48.9646 57.0282L56.8966 28.0239H58.725L66.657 57.0282H64.5039L60.8472 43.4374H54.1534L51.1164 57.0282H48.9634H48.9646ZM57.104 30.1792L54.3621 42.4445H60.5842L57.2818 30.1792H57.1053H57.104Z" fill="#87520E"/>
<path d="M90.8653 28.0238V57.0281H88.8604V30.4264H88.6838L81.5481 49.6521H80.6345L72.526 32.7053H72.3494L72.9976 57.0281H70.9927L71.7297 27.4438H72.3198L81.6086 46.8353H81.7851L88.7443 28.0238H90.8677H90.8653Z" fill="#87520E"/>
<path d="M97.0564 42.5262C97.0564 40.3993 97.3268 38.4171 97.8675 36.5809C98.4082 34.7446 99.165 33.1421 100.138 31.7744C101.111 30.4068 102.251 29.3434 103.559 28.5842C104.866 27.8249 106.276 27.4453 107.79 27.4453C109.303 27.4453 110.713 27.8249 112.02 28.5842C113.328 29.3446 114.467 30.4068 115.441 31.7744C116.414 33.1421 117.171 34.7446 117.712 36.5809C118.252 38.4184 118.523 40.4005 118.523 42.5262C118.523 44.6518 118.252 46.6352 117.712 48.4714C117.171 50.3089 116.414 51.9103 115.441 53.2779C114.469 54.6455 113.328 55.7089 112.02 56.4682C110.713 57.2274 109.303 57.607 107.79 57.607C106.276 57.607 104.865 57.2274 103.559 56.4682C102.251 55.7089 101.112 54.6455 100.138 53.2779C99.165 51.9103 98.4082 50.3089 97.8675 48.4714C97.3268 46.6352 97.0564 44.653 97.0564 42.5262ZM99.2983 42.5262C99.2983 45.3442 99.6527 47.8087 100.36 49.9219C101.067 52.0352 102.06 53.6785 103.338 54.8532C104.616 56.0279 106.099 56.6141 107.791 56.6141C109.482 56.6141 110.965 56.0279 112.244 54.8532C113.522 53.6798 114.514 52.029 115.222 49.9021C115.929 47.7753 116.283 45.317 116.283 42.5262C116.283 39.7353 115.929 37.2845 115.222 35.1712C114.514 33.058 113.522 31.4084 112.244 30.2201C110.966 29.033 109.482 28.4383 107.791 28.4383C106.099 28.4383 104.621 29.0256 103.353 30.1991C102.085 31.3738 101.092 33.0172 100.375 35.1304C99.6576 37.2437 99.2983 39.7093 99.2983 42.5262Z" fill="#87520E"/>
<path d="M124.441 46.4184C124.619 45.8706 124.974 45.8249 125.492 45.9621L125.293 45.198L124.661 45.3278C124.881 45.0978 125.018 44.9432 125.053 44.4993L124.174 45.0904C124.202 44.9816 124.299 44.7578 124.24 44.6972L123.918 44.372C124.607 43.4062 125.329 44.0282 125.504 42.7657C125.517 42.673 125.754 42.4961 125.729 42.4157L125.619 42.0522L125.52 41.7258C125.488 41.6182 126.108 41.5081 126.077 41.1916C126.065 41.0568 125.499 40.1776 125.03 40.2852C124.967 39.8635 125.708 40.1393 125.877 39.5791C125.925 39.4221 125.709 39.1599 125.535 39.014L125.253 38.1831C125.123 38.0879 124.917 37.9741 124.912 37.8678C124.887 37.3645 125.939 37.8517 125.903 37.3719L125.449 37.4214C125.481 37.4177 124.572 36.8662 124.671 36.5372L125.044 36.3963C125.19 36.3419 125.301 35.5789 125.001 35.4281C124.896 35.3761 124.748 35.4231 124.564 35.4763L124.239 35.5715C124.149 35.5975 124.207 35.2599 124.306 35.2475C124.582 35.2141 125.025 34.9137 125.232 34.7133L125.923 34.0431C124.951 33.917 125.023 34.2818 124.52 34.0456C124.45 34.0122 124.439 33.776 124.512 33.7501L124.88 33.6202C125.072 33.7167 125.15 33.781 125.166 33.7229L125.27 33.3433C125.255 33.3309 125.519 33.5794 125.596 33.6536L126.327 33.6079L126.557 33.5943C126.604 33.5918 126.723 33.6153 126.703 33.6586L126.528 34.0431L127.256 33.9776L127.428 33.1627C127.446 33.0737 127.376 32.7287 127.29 32.7559L126.88 32.8795C126.828 32.8944 126.598 32.8066 126.602 32.7534C126.606 32.7003 126.606 32.6347 126.604 32.5754C126.611 32.8387 127.172 32.0375 127.629 32.1859L127.155 31.2943L126.443 31.1385L127.261 30.8615L127.05 30.1357C127.004 29.9786 127.42 29.7251 127.408 29.5594C127.341 28.6667 126.553 29.4828 126.841 27.8827L126.171 27.2397L126.969 26.9899C127.034 26.9689 127.186 26.8873 127.245 26.8551C127.301 26.8242 127.064 26.7327 126.988 26.7179L126.271 26.5818L127.138 26.1676L126.93 25.7237C126.875 25.6037 127.015 25.2761 127.146 25.2637L127.955 25.1895C128.665 25.4677 129.32 25.2625 129.72 24.5242C129.798 24.3808 129.698 24.2757 129.478 24.0605C129.386 23.9703 129.22 24.0989 128.97 24.3313L128.001 24.0358L128.578 23.603C129.135 23.8021 129.662 23.9901 130.176 23.3619L128.986 23.143L129.655 22.892C129.793 22.8401 130.036 22.6484 130.062 22.5186C130.155 22.0623 128.881 21.6715 128.392 21.789L129.312 21.1361L130.141 20.9321C130.235 20.9086 130.438 20.7652 130.465 20.6761C130.61 20.1976 129.169 20.6415 129.029 19.6894C129.549 19.6374 129.902 20.0863 130.224 19.3938C130.262 19.311 129.992 19.2022 129.899 19.1849L129.409 19.0896C129.285 19.0649 129.144 19.3085 129.028 19.4297C128.446 19.4359 128.37 18.1721 128.304 18.2426L128.676 17.8395C127.988 17.7319 127.79 16.9418 127.676 16.5127C127.656 16.4373 127.34 16.2901 127.391 16.2295L127.645 15.9253C127.744 15.8079 127.902 15.5729 127.959 15.4555C128.015 15.338 127.794 15.087 127.704 14.9559L127.007 13.9469L127.378 13.5969C127.459 13.5215 127.225 13.221 127.109 13.247C126.786 13.3212 126.014 13.3348 125.922 12.996L126.07 12.5323C126.101 12.4346 125.827 12.2479 125.723 12.2095L124.52 11.7533C123.877 11.5097 123.187 11.8448 122.572 11.2599C123.408 11.0732 125.638 11.4157 126.075 11.203C126.156 11.1634 126.162 10.8976 126.087 10.8493L125.665 10.5823C125.957 10.2892 126.439 10.33 126.83 10.2373C127.13 10.1655 127.515 9.94543 127.85 9.92936L129.833 9.83167C130.507 9.79828 131.177 9.66597 131.841 9.38281C128.43 9.54727 119.976 9.5992 116.981 8.23035C116.496 8.00901 116.103 7.84084 115.503 7.81611C115.354 7.80993 115.495 7.31284 115.638 7.26214C116.202 7.06058 116.735 6.85037 117.302 6.70693C119.204 6.22715 121.133 6.04167 123.093 5.94151L125.606 5.81291C127.414 5.72017 129.212 5.75974 131.02 5.93162C132.422 6.06517 133.77 6.12205 135.175 6.44726C133.43 6.43984 131.738 6.05033 129.845 6.38543C130.619 7.1187 131.654 6.76505 132.55 6.8887C133.506 7.02101 134.388 7.20031 135.424 7.40558C135.117 7.88412 134.562 7.89896 134.034 7.88288L133.223 7.85815C132.528 8.30331 133.083 7.95831 132.008 8.22417C131.931 8.24272 132.085 8.5197 132.16 8.55927C133.789 9.42732 134.056 9.04276 135.068 8.93765C137.302 8.70642 136.96 8.32185 139.001 7.9546L139.096 7.35488C139.819 7.40063 139.986 8.0189 140.131 8.46529C140.378 9.21835 139.808 9.48915 139.534 10.0295C138.51 12.0476 139.089 14.5033 140.66 16.0651L143.081 18.4726C144.382 19.766 145.226 21.2276 146 22.8858C147.081 25.1994 147.721 27.6045 147.91 30.1913C148.566 39.1612 146.041 46.8265 142.633 55.0099C142.715 55.3054 143.226 55.1608 143.45 55.1806C144.758 55.298 145.95 55.7333 147.197 56.1463C147.846 56.3615 149.337 56.6446 149.66 56.9055C150.129 57.2851 150.495 58.5798 150.581 59.3007L148.944 60.6795C148.368 61.1629 147.339 61.3633 146.583 61.5636C145.978 61.7243 145.599 61.9815 145.024 62.1806L141.281 63.4777C139.634 64.049 138.803 64.0441 137.082 63.9711C136.524 63.9476 135.875 64.0144 135.27 64.028L134.145 64.054L132.788 64.2221C131.327 64.4027 129.875 64.2592 128.419 64.1826L125.934 64.0515C123.096 63.9019 117.297 63.0511 115.386 60.6745C116.424 61.3373 117.439 61.9148 118.603 62.2968L119.154 62.2325C119.481 62.4625 119.802 62.5194 120.202 62.5924L122.608 63.0301C122.814 63.0672 124.207 63.0301 124.114 62.5553C124.095 62.4539 124.012 62.3377 123.878 62.1806C123.512 61.7478 123.308 61.8801 122.623 61.8134C122.583 61.8097 122.617 61.8492 122.612 61.8999L122.58 62.2053L122.171 61.5116L123.198 61.2495L122.407 60.7549L123.516 60.5793C123.666 60.5558 123.396 60.1168 123.23 60.0612L123.454 59.5728C123.532 59.4046 123.162 59.1857 122.991 59.1177L121.982 58.7171C121.86 58.6688 121.893 58.3115 122.007 58.2163C122.106 58.1322 122.329 58.0295 122.471 57.9999L123.07 57.8787C123.054 57.7402 123.053 57.6029 122.975 57.5745L122.483 57.3977L123.192 56.7856C123.03 56.6149 122.749 56.6236 122.478 56.8091L121.89 56.3627L122.639 55.7407C122.688 55.6999 123.017 55.7753 122.993 55.8347L122.897 56.0919C122.856 56.1995 122.783 56.4146 122.867 56.4492L123.272 56.6162C123.381 56.6607 123.411 56.2427 123.361 56.1302C123.234 55.8384 123.299 55.695 123.45 55.3846C123.669 54.9357 122.528 54.8294 122.316 54.7799C122.229 54.7601 122.441 54.5734 122.575 54.383C122.516 54.3249 122.188 54.1505 121.903 53.9972C122.603 53.3987 123.907 54.3224 124.235 53.8525C124.482 52.82 125.027 53.4506 125.197 52.9325C125.228 52.8385 124.969 52.7161 124.87 52.7087L122.819 52.5443C122.434 52.5133 121.923 52.705 121.762 52.0348L122.996 52.1003C123.108 51.9322 123.248 51.6144 123.351 51.3584L122.65 51.1865L123.402 50.0872L122.787 49.2464L123.304 48.8396L124.938 48.9113L124.933 48.5898L123.898 48.6689C123.876 48.6603 123.787 48.4501 123.795 48.3783C123.804 48.2831 123.951 48.1879 124.072 48.11L124.603 47.7626L123.398 47.5313C123.748 47.1604 124.881 47.5486 125.272 46.5112L124.438 46.4135L124.441 46.4184Z" fill="#87520E"/>
</g>
<defs>
<clipPath id="clip0_133_334">
<rect width="137.146" height="58.5465" fill="white" transform="translate(13.4341 5.76611)"/>
</clipPath>
</defs>
</svg>
